<svg width="16" height="16" viewBox="0 0 16 16" fill="none" xmlns="http://www.w3.org/2000/svg">
<path d="M13 10L15 12L13 14" stroke="#858E96" stroke-linecap="round" stroke-linejoin="round"/>
<path d="M13 2L15 4L13 6" stroke="#858E96" stroke-linecap="round" stroke-linejoin="round"/>
<path d="M1.33301 12.0001H2.64834C3.07934 12.003 3.50462 11.9014 3.88777 11.7041C4.27092 11.5067 4.60052 11.2194 4.84834 10.8667L8.48434 5.1334C8.73216 4.78076 9.06176 4.49345 9.44491 4.29607C9.82806 4.09869 10.2533 3.99712 10.6843 4.00006H14.6663" stroke="#858E96" stroke-linecap="round" stroke-linejoin="round"/>
<path d="M1.33301 4.00006H2.64767C3.14465 3.99661 3.6327 4.1321 4.05677 4.39125C4.48083 4.6504 6.77637 8.05617 7 8.5" stroke="#858E96" stroke-linecap="round" stroke-linejoin="round"/>
<path d="M14.6669 12H10.6395C10.2026 11.9955 9.77341 11.8838 9.38979 11.6745C9.00616 11.4653 8.67984 11.165 8.43953 10.8L7 8.5" stroke="#858E96" stroke-linecap="round" stroke-linejoin="round"/>
</svg>
