<svg width="48" height="48" viewBox="0 0 48 48" fill="none" xmlns="http://www.w3.org/2000/svg">
<path d="M19.8749 31C19.6963 30.3079 19.3355 29.6762 18.8301 29.1708C18.3246 28.6653 17.693 28.3046 17.0009 28.126L4.73086 24.962C4.52152 24.9026 4.33727 24.7765 4.20608 24.6029C4.07489 24.4293 4.00391 24.2176 4.00391 24C4.00391 23.7824 4.07489 23.5707 4.20608 23.3971C4.33727 23.2235 4.52152 23.0974 4.73086 23.038L17.0009 19.872C17.6928 19.6936 18.3242 19.3332 18.8297 18.8281C19.3351 18.323 19.696 17.6918 19.8749 17L23.0389 4.73001C23.0977 4.51985 23.2236 4.33469 23.3975 4.2028C23.5714 4.0709 23.7836 3.99951 24.0019 3.99951C24.2201 3.99951 24.4323 4.0709 24.6062 4.2028C24.7801 4.33469 24.906 4.51985 24.9649 4.73001L28.1269 17C28.3054 17.6922 28.6662 18.3238 29.1716 18.8292C29.6771 19.3347 30.3087 19.6955 31.0009 19.874L43.2709 23.036C43.4819 23.0942 43.6679 23.22 43.8005 23.3942C43.9331 23.5683 44.005 23.7811 44.005 24C44.005 24.2189 43.9331 24.4317 43.8005 24.6059C43.6679 24.78 43.4819 24.9058 43.2709 24.964L31.0009 28.126C30.3087 28.3046 29.6771 28.6653 29.1716 29.1708C28.6662 29.6762 28.3054 30.3079 28.1269 31L24.9629 43.27C24.904 43.4802 24.7781 43.6653 24.6042 43.7972C24.4303 43.9291 24.2181 44.0005 23.9999 44.0005C23.7816 44.0005 23.5694 43.9291 23.3955 43.7972C23.2216 43.6653 23.0957 43.4802 23.0369 43.27L19.8749 31Z" stroke="black" stroke-width="3" stroke-linecap="round" stroke-linejoin="round"/>
<path d="M40 6V14" stroke="black" stroke-width="2" stroke-linecap="round" stroke-linejoin="round"/>
<path d="M44 10H36" stroke="black" stroke-width="2" stroke-linecap="round" stroke-linejoin="round"/>
<path d="M8 34V38" stroke="black" stroke-width="2" stroke-linecap="round" stroke-linejoin="round"/>
<path d="M10 36H6" stroke="black" stroke-width="2" stroke-linecap="round" stroke-linejoin="round"/>
</svg>
